<svg width="253" height="48" viewBox="0 0 253 48" fill="none" xmlns="http://www.w3.org/2000/svg">
<path d="M25.856 42.576C26.176 42.896 26.336 43.344 26.336 43.92C26.336 44.656 26.224 45.248 26 45.696C25.808 46.176 25.584 46.464 25.328 46.56C25.136 46.56 24.8 46.592 24.32 46.656C23.84 46.752 23.28 46.848 22.64 46.944C22 47.04 21.296 47.12 20.528 47.184C19.792 47.28 19.072 47.328 18.368 47.328C17.984 47.328 17.744 47.328 17.648 47.328C17.552 47.328 17.408 47.312 17.216 47.28C17.024 47.28 16.672 47.264 16.16 47.232C15.648 47.2 14.752 47.168 13.472 47.136C12.512 47.104 11.776 47.088 11.264 47.088C10.784 47.088 10.368 47.056 10.016 46.992C9.664 46.96 9.312 46.864 8.96 46.704C8.608 46.576 8.096 46.336 7.424 45.984C7.168 45.44 6.96 44.944 6.8 44.496C6.64 44.08 6.56 43.712 6.56 43.392C6.592 43.392 6.608 43.232 6.608 42.912C6.608 42.624 6.64 41.92 6.704 40.8L6.848 37.872C6.816 37.776 6.8 37.616 6.8 37.392C6.8 36.272 6.944 35.504 7.232 35.088C7.552 34.672 7.92 34.416 8.336 34.32C8.784 34.224 9.248 34.192 9.728 34.224C10.24 34.256 10.688 34.144 11.072 33.888C11.616 33.888 12.192 33.856 12.8 33.792C13.408 33.728 13.984 33.696 14.528 33.696C14.656 33.696 14.768 33.712 14.864 33.744C14.992 33.744 15.104 33.744 15.2 33.744C15.488 33.712 15.808 33.696 16.16 33.696C16.512 33.696 16.848 33.68 17.168 33.648C17.488 33.616 17.76 33.536 17.984 33.408C18.208 33.248 18.352 32.976 18.416 32.592C17.936 32.528 17.408 32.448 16.832 32.352C16.288 32.224 15.904 32.128 15.68 32.064C15.232 32.064 14.688 32.064 14.048 32.064C13.44 32.032 12.848 31.936 12.272 31.776C11.696 31.616 11.2 31.36 10.784 31.008C10.368 30.656 10.16 30.16 10.16 29.52C10.16 28.432 10.576 27.632 11.408 27.12C11.824 27.28 12.496 27.376 13.424 27.408C13.968 27.44 14.448 27.488 14.864 27.552C15.28 27.584 15.664 27.632 16.016 27.696C16.368 27.728 16.688 27.76 16.976 27.792C17.296 27.824 17.632 27.84 17.984 27.84H18.224C18.48 27.84 18.96 27.936 19.664 28.128C20.4 28.32 21.168 28.496 21.968 28.656C22.384 29.136 22.688 29.728 22.88 30.432C23.072 31.104 23.168 31.6 23.168 31.92C22.976 32.816 22.768 33.648 22.544 34.416C22.352 35.184 21.984 36.064 21.44 37.056C21.28 37.12 21.072 37.184 20.816 37.248C20.56 37.312 20.288 37.376 20 37.44C19.744 37.504 19.488 37.568 19.232 37.632C19.008 37.728 18.848 37.792 18.752 37.824C18.144 37.824 17.488 37.824 16.784 37.824C16.112 37.856 15.44 37.888 14.768 37.92C14.096 37.984 13.456 38.048 12.848 38.112C12.272 38.176 11.776 38.256 11.36 38.352C11.328 38.704 11.296 39.056 11.264 39.408C11.232 39.792 11.2 40.144 11.168 40.464C11.168 40.816 11.152 41.104 11.12 41.328C11.12 41.552 11.12 41.664 11.12 41.664C11.12 41.856 11.12 42.032 11.12 42.192C11.152 42.352 11.184 42.528 11.216 42.72L15.008 42.864C15.392 42.896 15.728 42.912 16.016 42.912C16.336 42.944 16.624 42.96 16.88 42.96C17.488 42.96 17.872 42.912 18.032 42.816C18.192 42.816 18.336 42.816 18.464 42.816C18.592 42.848 18.736 42.864 18.896 42.864C19.248 42.864 19.52 42.832 19.712 42.768C19.936 42.736 20.208 42.688 20.528 42.624C20.88 42.592 21.36 42.544 21.968 42.48C22.576 42.448 23.488 42.432 24.704 42.432C25.216 42.432 25.6 42.48 25.856 42.576ZM13.424 15.456C13.072 15.424 12.672 15.344 12.224 15.216C11.776 15.056 11.376 14.88 11.024 14.688C10.512 13.888 10.256 13.12 10.256 12.384C10.256 11.584 10.272 11.008 10.304 10.656C10.336 10.272 10.368 9.984 10.4 9.792C10.464 9.6 10.512 9.456 10.544 9.36C10.576 9.232 10.592 8.992 10.592 8.64C10.592 8.352 10.56 8.016 10.496 7.632C10.432 7.248 10.4 6.784 10.4 6.24C10.4 5.888 10.432 5.488 10.496 5.04C10.56 4.56 10.64 4.096 10.736 3.648C10.832 3.2 10.928 2.8 11.024 2.448C11.12 2.064 11.2 1.792 11.264 1.632C11.84 1.568 12.432 1.552 13.04 1.584C13.68 1.616 14.192 1.536 14.576 1.344L17.168 0.912C17.712 0.815999 18.16 0.751999 18.512 0.719999C18.864 0.655998 19.152 0.591998 19.376 0.527999C20.432 0.591998 20.96 1.488 20.96 3.216C20.96 4.112 20.688 4.704 20.144 4.992L17.456 5.472C17.168 5.472 16.912 5.488 16.688 5.52C16.496 5.552 16.32 5.584 16.16 5.616C16 5.648 15.824 5.68 15.632 5.712C15.44 5.744 15.2 5.776 14.912 5.808C14.848 6.064 14.784 6.32 14.72 6.576C14.688 6.832 14.672 7.136 14.672 7.488C14.672 7.648 14.672 7.824 14.672 8.016C14.672 8.176 14.704 8.352 14.768 8.544C14.704 8.864 14.656 9.296 14.624 9.84C14.624 10.384 14.624 10.848 14.624 11.232C14.976 11.264 15.36 11.296 15.776 11.328C16.192 11.328 16.608 11.328 17.024 11.328C17.472 11.328 17.792 11.328 17.984 11.328C18.208 11.296 18.432 11.28 18.656 11.28C18.752 11.28 18.864 11.28 18.992 11.28C19.152 11.28 19.328 11.296 19.52 11.328C19.776 11.296 20.144 11.248 20.624 11.184C21.136 11.088 21.584 11.04 21.968 11.04C22.064 11.104 22.192 11.216 22.352 11.376C22.512 11.504 22.672 11.664 22.832 11.856C23.024 12.048 23.168 12.272 23.264 12.528C23.392 12.752 23.456 12.976 23.456 13.2C23.456 13.744 23.28 14.192 22.928 14.544C22.576 14.864 22.112 15.12 21.536 15.312C20.992 15.472 20.384 15.584 19.712 15.648C19.04 15.712 18.384 15.744 17.744 15.744C17.904 16.384 17.984 17.056 17.984 17.76C17.984 17.92 17.984 18.064 17.984 18.192C17.984 18.32 17.968 18.448 17.936 18.576V18.96C17.936 19.216 17.92 19.504 17.888 19.824C17.888 20.144 17.888 20.448 17.888 20.736L21.728 20.928C22.944 20.992 24.096 21.04 25.184 21.072C26.272 21.072 27.216 21.152 28.016 21.312C28.816 21.44 29.44 21.68 29.888 22.032C30.368 22.384 30.608 22.912 30.608 23.616C30.608 24.256 30.48 24.784 30.224 25.2C30 25.616 29.536 25.824 28.832 25.824C28.544 25.824 28.224 25.824 27.872 25.824C27.52 25.792 27.168 25.76 26.816 25.728C26.496 25.696 26.176 25.664 25.856 25.632C25.568 25.6 25.344 25.568 25.184 25.536C25.12 25.536 25.04 25.552 24.944 25.584C24.88 25.584 24.816 25.584 24.752 25.584C24.272 25.584 23.68 25.536 22.976 25.44C22.272 25.344 21.504 25.296 20.672 25.296H19.856C19.824 25.296 19.568 25.296 19.088 25.296C18.64 25.264 18.128 25.248 17.552 25.248C16.976 25.216 16.4 25.184 15.824 25.152C15.28 25.12 14.912 25.088 14.72 25.056C14.592 25.088 14.32 25.12 13.904 25.152C13.52 25.184 13.088 25.216 12.608 25.248C12.128 25.28 11.648 25.312 11.168 25.344C10.688 25.376 10.32 25.392 10.064 25.392C9.904 25.392 9.776 25.392 9.68 25.392C9.616 25.36 9.52 25.344 9.392 25.344C9.2 25.344 8.944 25.36 8.624 25.392C8.304 25.392 7.968 25.392 7.616 25.392C7.392 25.392 7.168 25.392 6.944 25.392C6.72 25.392 6.512 25.36 6.32 25.296C6.064 25.328 5.76 25.376 5.408 25.44C5.056 25.472 4.64 25.488 4.16 25.488C2.88 25.488 2 25.328 1.52 25.008C1.04 24.688 0.8 24.192 0.8 23.52C0.8 22.72 0.96 22.16 1.28 21.84C1.632 21.488 2.064 21.264 2.576 21.168C3.12 21.072 3.696 21.04 4.304 21.072C4.944 21.072 5.536 21.008 6.08 20.88C6.08 20.88 6.4 20.88 7.04 20.88C7.712 20.88 8.464 20.88 9.296 20.88C10.16 20.848 10.992 20.832 11.792 20.832C12.624 20.8 13.2 20.768 13.52 20.736C13.52 20.416 13.504 20.144 13.472 19.92C13.472 19.696 13.472 19.456 13.472 19.2V18.768C13.376 18.448 13.328 17.984 13.328 17.376C13.328 17.024 13.328 16.688 13.328 16.368C13.36 16.016 13.392 15.712 13.424 15.456ZM68.159 14.928C68.191 15.088 68.207 15.248 68.207 15.408C68.239 15.568 68.255 15.728 68.255 15.888C68.255 16.336 68.223 16.816 68.159 17.328C68.095 17.808 68.031 18.176 67.967 18.432C67.967 18.976 67.935 19.552 67.871 20.16C67.807 20.736 67.695 21.28 67.535 21.792C67.375 22.304 67.135 22.72 66.815 23.04C66.527 23.36 66.143 23.52 65.663 23.52C64.895 23.52 64.335 23.296 63.983 22.848C63.631 22.4 63.455 21.952 63.455 21.504C63.455 21.088 63.471 20.752 63.503 20.496C63.567 20.208 63.631 19.888 63.695 19.536C63.759 19.184 63.807 18.736 63.839 18.192C63.903 17.648 63.935 16.88 63.935 15.888C63.935 15.664 63.919 15.488 63.887 15.36C63.887 15.232 63.871 15.104 63.839 14.976C63.839 14.848 63.823 14.72 63.791 14.592C63.791 14.432 63.791 14.224 63.791 13.968C63.791 13.52 63.839 13.024 63.935 12.48C63.807 12.032 63.743 11.488 63.743 10.848C63.743 10.176 63.679 9.712 63.551 9.456C63.519 9.104 63.487 8.72 63.455 8.304C63.423 7.856 63.407 7.44 63.407 7.056C63.407 6.416 63.615 5.936 64.031 5.616C64.479 5.296 65.055 5.136 65.759 5.136C66.495 5.136 67.087 5.408 67.535 5.952C67.631 6.688 67.743 7.44 67.871 8.208C68.031 8.944 68.111 9.632 68.111 10.272C68.111 10.592 68.095 10.816 68.063 10.944C68.191 11.552 68.255 12.16 68.255 12.768C68.255 13.152 68.239 13.52 68.207 13.872C68.175 14.224 68.159 14.576 68.159 14.928ZM55.823 18.672C56.495 19.056 56.831 19.536 56.831 20.112C56.831 20.336 56.783 20.56 56.687 20.784C56.527 21.264 56.367 21.632 56.207 21.888C56.079 22.144 55.903 22.32 55.679 22.416C55.455 22.512 55.199 22.56 54.911 22.56C54.623 22.56 54.255 22.56 53.807 22.56C52.943 22.56 52.287 22.528 51.839 22.464C51.423 22.4 50.991 22.368 50.543 22.368C49.967 22.368 49.455 22.4 49.007 22.464C48.559 22.496 48.127 22.544 47.711 22.608C47.295 22.64 46.863 22.688 46.415 22.752C45.967 22.784 45.439 22.8 44.831 22.8C44.639 22.8 44.495 22.784 44.399 22.752C44.239 22.816 43.951 22.88 43.535 22.944C43.119 22.976 42.655 23.024 42.143 23.088C41.663 23.12 41.183 23.152 40.703 23.184C40.255 23.216 39.903 23.232 39.647 23.232C39.551 23.232 39.407 23.184 39.215 23.088C39.055 22.992 38.879 22.848 38.687 22.656C38.527 22.464 38.367 22.224 38.207 21.936C38.079 21.616 38.015 21.232 38.015 20.784C38.015 20.08 38.383 19.616 39.119 19.392C39.855 19.136 40.895 18.912 42.239 18.72C42.111 17.792 41.999 16.784 41.903 15.696C41.807 14.608 41.727 13.712 41.663 13.008C41.535 13.008 41.407 13.024 41.279 13.056C41.151 13.056 41.023 13.056 40.895 13.056C40.607 13.056 40.287 13.04 39.935 13.008C39.615 12.976 39.295 12.912 38.975 12.816C38.655 12.688 38.383 12.512 38.159 12.288C37.967 12.064 37.871 11.744 37.871 11.328C37.871 11.104 37.919 10.848 38.015 10.56C38.207 9.952 38.431 9.504 38.687 9.216C38.975 8.928 39.279 8.72 39.599 8.592C39.919 8.464 40.271 8.4 40.655 8.4C41.071 8.4 41.519 8.4 41.999 8.4C42.127 8.4 42.239 8.416 42.335 8.448C42.431 8.448 42.511 8.448 42.575 8.448C42.991 8.352 43.551 8.304 44.255 8.304C44.991 8.272 45.551 8.256 45.935 8.256C46.479 8.256 46.991 8.208 47.471 8.112C47.983 8.016 48.527 7.92 49.103 7.824C49.711 7.728 50.383 7.632 51.119 7.536C51.855 7.44 52.735 7.392 53.759 7.392C54.015 7.392 54.287 7.424 54.575 7.488C54.863 7.52 55.119 7.616 55.343 7.776C55.599 7.936 55.807 8.192 55.967 8.544C56.127 8.864 56.207 9.312 56.207 9.888C56.207 10.464 55.983 10.864 55.535 11.088C55.087 11.28 54.367 11.504 53.375 11.76V12.432C53.375 12.816 53.359 13.264 53.327 13.776C53.327 14.288 53.295 14.816 53.231 15.36C53.199 15.904 53.151 16.416 53.087 16.896C53.055 17.376 53.007 17.776 52.943 18.096C53.359 18.16 53.807 18.24 54.287 18.336C54.799 18.432 55.311 18.544 55.823 18.672ZM62.351 37.92C61.903 38.08 61.455 38.224 61.007 38.352C60.591 38.48 60.111 38.576 59.567 38.64C59.055 38.736 58.463 38.8 57.791 38.832C57.119 38.896 56.319 38.928 55.391 38.928C54.975 38.928 54.559 38.912 54.143 38.88C53.727 38.848 53.359 38.816 53.039 38.784C52.783 38.848 52.559 38.88 52.367 38.88C52.015 38.88 51.631 38.832 51.215 38.736C50.799 38.672 50.399 38.592 50.015 38.496C49.343 37.568 49.007 36.64 49.007 35.712C49.007 35.552 49.039 35.312 49.103 34.992C48.975 34.192 48.863 33.488 48.767 32.88C48.703 32.272 48.671 31.52 48.671 30.624C48.671 29.792 48.719 29.12 48.815 28.608C48.943 28.096 49.103 27.696 49.295 27.408C49.487 27.12 49.695 26.928 49.919 26.832C50.175 26.704 50.447 26.64 50.735 26.64C51.311 26.64 52.095 26.912 53.087 27.456C53.151 27.872 53.199 28.32 53.231 28.8C53.263 29.248 53.279 29.664 53.279 30.048V30.912C53.343 31.648 53.359 32.272 53.327 32.784C53.295 33.264 53.343 33.776 53.471 34.32C53.951 34.352 54.527 34.368 55.199 34.368C55.903 34.368 56.511 34.368 57.023 34.368C57.407 34.368 57.759 34.368 58.079 34.368C58.399 34.336 58.735 34.304 59.087 34.272C59.471 34.208 59.887 34.16 60.335 34.128C60.783 34.064 61.295 33.984 61.871 33.888C62.159 34.08 62.479 34.368 62.831 34.752C63.183 35.136 63.359 35.552 63.359 36C63.359 36.576 63.023 37.216 62.351 37.92ZM49.007 12.336H48.671C48.447 12.336 48.047 12.4 47.471 12.528C46.895 12.656 46.447 12.72 46.127 12.72C46.191 13.168 46.239 13.648 46.271 14.16C46.303 14.64 46.335 15.136 46.367 15.648C46.399 16.128 46.415 16.592 46.415 17.04C46.447 17.488 46.495 17.872 46.559 18.192C46.847 18.192 47.151 18.192 47.471 18.192C47.823 18.16 48.191 18.128 48.575 18.096C48.671 17.04 48.767 16.096 48.863 15.264C48.959 14.432 49.007 13.456 49.007 12.336ZM105.614 14.928C105.646 15.088 105.662 15.248 105.662 15.408C105.694 15.568 105.71 15.728 105.71 15.888C105.71 16.336 105.678 16.816 105.614 17.328C105.55 17.808 105.486 18.176 105.422 18.432V18.816C105.422 19.328 105.39 19.872 105.326 20.448C105.262 20.992 105.134 21.488 104.942 21.936C104.782 22.384 104.558 22.768 104.27 23.088C103.982 23.376 103.614 23.52 103.166 23.52C102.43 23.52 101.886 23.312 101.534 22.896C101.182 22.48 101.006 22.048 101.006 21.6C101.006 21.152 101.022 20.8 101.054 20.544C101.118 20.256 101.166 19.936 101.198 19.584C101.262 19.232 101.31 18.784 101.342 18.24C101.406 17.664 101.438 16.88 101.438 15.888C101.438 15.664 101.422 15.488 101.39 15.36C101.39 15.232 101.374 15.104 101.342 14.976C101.342 14.848 101.326 14.72 101.294 14.592C101.294 14.432 101.294 14.224 101.294 13.968C101.294 13.52 101.342 13.024 101.438 12.48C101.31 12.032 101.246 11.488 101.246 10.848C101.246 10.176 101.182 9.712 101.054 9.456C101.022 9.104 100.99 8.72 100.958 8.304C100.926 7.856 100.91 7.44 100.91 7.056C100.91 6.416 101.118 5.936 101.534 5.616C101.95 5.296 102.526 5.136 103.262 5.136C104.03 5.136 104.606 5.408 104.99 5.952C105.086 6.688 105.198 7.44 105.326 8.208C105.486 8.944 105.566 9.632 105.566 10.272C105.566 10.592 105.55 10.816 105.518 10.944C105.646 11.552 105.71 12.16 105.71 12.768C105.71 13.152 105.694 13.52 105.662 13.872C105.63 14.224 105.614 14.576 105.614 14.928ZM92.174 14.208C92.046 14.944 91.95 15.616 91.886 16.224C91.822 16.8 91.678 17.344 91.454 17.856C91.262 18.336 90.942 18.816 90.494 19.296C90.078 19.744 89.438 20.176 88.574 20.592C88.094 20.848 87.758 21.024 87.566 21.12C87.406 21.216 87.294 21.28 87.23 21.312C87.198 21.344 87.166 21.36 87.134 21.36C87.134 21.328 87.054 21.312 86.894 21.312C86.702 21.312 86.43 21.296 86.078 21.264C85.758 21.2 85.422 21.136 85.07 21.072C84.75 21.008 84.462 20.96 84.206 20.928C83.95 20.864 83.806 20.832 83.774 20.832H83.678C83.326 20.8 82.67 20.448 81.71 19.776C80.974 19.264 80.446 18.848 80.126 18.528C79.806 18.176 79.566 17.824 79.406 17.472C79.278 17.12 79.182 16.736 79.118 16.32C79.054 15.872 78.926 15.296 78.734 14.592C78.894 14.24 79.038 13.776 79.166 13.2C79.294 12.592 79.438 12.096 79.598 11.712C79.662 11.552 79.838 11.328 80.126 11.04C80.414 10.752 80.75 10.448 81.134 10.128C81.518 9.776 81.934 9.44 82.382 9.12C82.83 8.768 83.23 8.464 83.582 8.208C84.862 8.272 86.046 8.384 87.134 8.544C88.222 8.672 89.118 9.008 89.822 9.552C90.014 9.712 90.222 10.016 90.446 10.464C90.702 10.88 90.942 11.344 91.166 11.856C91.422 12.336 91.63 12.8 91.79 13.248C91.982 13.696 92.11 14.016 92.174 14.208ZM99.854 37.92C99.406 38.08 98.974 38.224 98.558 38.352C98.142 38.48 97.678 38.576 97.166 38.64C96.654 38.736 96.062 38.8 95.39 38.832C94.718 38.896 93.918 38.928 92.99 38.928C92.574 38.928 92.158 38.912 91.742 38.88C91.326 38.848 90.958 38.816 90.638 38.784C90.446 38.848 90.238 38.88 90.014 38.88C89.662 38.88 89.278 38.832 88.862 38.736C88.446 38.672 88.046 38.592 87.662 38.496C86.99 37.568 86.654 36.64 86.654 35.712C86.654 35.552 86.686 35.312 86.75 34.992C86.654 34.448 86.574 33.968 86.51 33.552C86.478 33.136 86.462 32.704 86.462 32.256V31.776C86.43 31.616 86.414 31.456 86.414 31.296C86.414 31.104 86.414 30.912 86.414 30.72C86.414 29.856 86.446 29.168 86.51 28.656C86.606 28.112 86.734 27.696 86.894 27.408C87.086 27.12 87.294 26.928 87.518 26.832C87.774 26.704 88.062 26.64 88.382 26.64C88.926 26.64 89.694 26.912 90.686 27.456C90.75 27.872 90.798 28.32 90.83 28.8C90.862 29.248 90.878 29.664 90.878 30.048V30.912C90.942 31.68 90.958 32.304 90.926 32.784C90.926 33.264 90.974 33.776 91.07 34.32C91.55 34.352 92.126 34.368 92.798 34.368C93.47 34.368 94.062 34.368 94.574 34.368C94.958 34.368 95.31 34.368 95.63 34.368C95.95 34.336 96.286 34.304 96.638 34.272C96.99 34.208 97.39 34.16 97.838 34.128C98.286 34.064 98.798 33.984 99.374 33.888C99.662 34.08 99.982 34.368 100.334 34.752C100.686 35.136 100.862 35.552 100.862 36C100.862 36.576 100.526 37.216 99.854 37.92ZM87.374 16.224C87.502 15.84 87.566 15.504 87.566 15.216C87.566 15.056 87.534 14.752 87.47 14.304C87.406 13.824 87.198 13.392 86.846 13.008C85.886 12.688 85.134 12.528 84.59 12.528C84.43 12.56 84.27 12.656 84.11 12.816C83.95 12.944 83.806 13.168 83.678 13.488L83.246 14.64V14.736C83.246 14.832 83.294 15.008 83.39 15.264C83.486 15.52 83.63 15.792 83.822 16.08C84.046 16.336 84.318 16.56 84.638 16.752C84.958 16.944 85.342 17.04 85.79 17.04C86.078 17.04 86.382 16.992 86.702 16.896C87.054 16.8 87.278 16.576 87.374 16.224ZM142.493 42.576C142.813 42.96 142.973 43.424 142.973 43.968C142.973 44.704 142.861 45.28 142.637 45.696C142.445 46.144 142.221 46.448 141.965 46.608C141.805 46.608 141.453 46.64 140.909 46.704C140.365 46.8 139.709 46.896 138.941 46.992C138.205 47.088 137.405 47.168 136.541 47.232C135.709 47.328 134.925 47.376 134.189 47.376C133.837 47.376 133.581 47.36 133.421 47.328C133.293 47.328 133.117 47.312 132.893 47.28C132.701 47.28 132.365 47.264 131.885 47.232C131.405 47.2 130.653 47.168 129.629 47.136C128.797 47.104 128.157 47.088 127.709 47.088C127.293 47.088 126.925 47.056 126.605 46.992C126.285 46.96 125.933 46.864 125.549 46.704C125.197 46.576 124.685 46.336 124.013 45.984C123.437 44.896 123.149 44.032 123.149 43.392C123.181 43.424 123.213 43.248 123.245 42.864C123.277 42.48 123.373 41.632 123.533 40.32L123.965 36.864C123.965 36.8 123.949 36.752 123.917 36.72C123.917 36.688 123.917 36.64 123.917 36.576C123.917 36.096 124.029 35.552 124.253 34.944C124.509 34.304 124.765 33.84 125.021 33.552C125.149 33.488 125.357 33.44 125.645 33.408C125.933 33.376 126.237 33.36 126.557 33.36C126.877 33.328 127.181 33.28 127.469 33.216C127.757 33.152 127.981 33.072 128.141 32.976C128.653 32.976 129.213 32.96 129.821 32.928C130.429 32.864 131.005 32.832 131.549 32.832C131.709 32.832 131.837 32.848 131.933 32.88C132.061 32.88 132.189 32.88 132.317 32.88C132.701 32.784 133.213 32.736 133.853 32.736C134.525 32.704 135.085 32.672 135.533 32.64C135.629 32.448 135.709 32.24 135.773 32.016C135.869 31.76 135.933 31.504 135.965 31.248C135.709 31.216 135.421 31.184 135.101 31.152C134.781 31.088 134.461 31.024 134.141 30.96C133.821 30.896 133.533 30.848 133.277 30.816C133.021 30.752 132.829 30.704 132.701 30.672C132.509 30.672 132.253 30.656 131.933 30.624C131.613 30.592 131.261 30.544 130.877 30.48C130.493 30.416 130.093 30.336 129.677 30.24C129.293 30.112 128.941 29.952 128.621 29.76C128.301 29.44 128.141 28.912 128.141 28.176C128.141 27.088 128.557 26.288 129.389 25.776C130.477 26.064 131.549 26.256 132.605 26.352C133.693 26.448 134.685 26.496 135.581 26.496H135.773C136.029 26.496 136.509 26.592 137.213 26.784C137.949 26.976 138.717 27.152 139.517 27.312C139.933 27.792 140.237 28.384 140.429 29.088C140.621 29.76 140.717 30.24 140.717 30.528C140.525 31.424 140.317 32.336 140.093 33.264C139.901 34.192 139.533 35.152 138.989 36.144C138.669 36.24 138.189 36.368 137.549 36.528C136.909 36.688 136.477 36.816 136.253 36.912C134.525 36.912 133.037 36.96 131.789 37.056C130.573 37.152 129.485 37.296 128.525 37.488C128.461 37.68 128.397 37.904 128.333 38.16C128.301 38.416 128.269 38.688 128.237 38.976C128.205 39.264 128.173 39.52 128.141 39.744C128.109 40 128.077 40.192 128.045 40.32C128.013 40.608 127.965 40.992 127.901 41.472C127.869 41.952 127.853 42.368 127.853 42.72L131.645 42.864C132.029 42.896 132.365 42.912 132.653 42.912C132.973 42.944 133.261 42.96 133.517 42.96C134.093 42.96 134.477 42.912 134.669 42.816C134.829 42.816 134.973 42.816 135.101 42.816C135.229 42.848 135.373 42.864 135.533 42.864C135.853 42.864 136.109 42.832 136.301 42.768C136.525 42.736 136.797 42.688 137.117 42.624C137.469 42.592 137.949 42.544 138.557 42.48C139.197 42.448 140.125 42.432 141.341 42.432C141.853 42.432 142.237 42.48 142.493 42.576ZM125.261 13.776C125.389 13.424 125.501 13.104 125.597 12.816C125.693 12.496 125.757 12.224 125.789 12C125.021 11.808 124.205 11.664 123.341 11.568C122.509 11.44 121.709 11.376 120.941 11.376C120.557 11.376 120.125 11.328 119.645 11.232C119.197 11.104 118.653 10.976 118.013 10.848C117.661 10.24 117.485 9.696 117.485 9.216C117.485 8.928 117.549 8.656 117.677 8.4C117.837 8.112 118.013 7.856 118.205 7.632C118.397 7.408 118.589 7.232 118.781 7.104C118.973 6.976 119.117 6.896 119.213 6.864C119.277 6.864 119.437 6.88 119.693 6.912C119.981 6.912 120.381 6.928 120.893 6.96L123.245 7.104C123.885 7.168 124.461 7.264 124.973 7.392C125.485 7.488 126.061 7.6 126.701 7.728H127.037C127.645 7.728 128.221 7.856 128.765 8.112C129.341 8.368 129.901 8.672 130.445 9.024C130.509 9.28 130.541 9.52 130.541 9.744C130.541 9.936 130.541 10.128 130.541 10.32C130.541 10.48 130.493 10.8 130.397 11.28C130.301 11.76 130.173 12.32 130.013 12.96C129.853 13.568 129.661 14.192 129.437 14.832C129.245 15.44 129.037 15.952 128.813 16.368C128.621 16.848 128.333 17.456 127.949 18.192C127.597 18.896 127.085 19.664 126.413 20.496C126.253 20.944 125.933 21.44 125.453 21.984C124.973 22.496 124.605 22.944 124.349 23.328C123.645 23.488 123.117 23.568 122.765 23.568C122.413 23.568 122.125 23.504 121.901 23.376C121.709 23.216 121.533 23.024 121.373 22.8C121.245 22.544 121.133 22.272 121.037 21.984C120.973 21.696 120.893 21.392 120.797 21.072C121.405 20.08 121.869 19.392 122.189 19.008C122.509 18.592 122.765 18.208 122.957 17.856C122.637 17.824 122.349 17.808 122.093 17.808C121.837 17.776 121.661 17.744 121.565 17.712H121.037C120.557 17.712 119.965 17.68 119.261 17.616C118.589 17.552 117.981 17.392 117.437 17.136C117.277 16.976 117.133 16.752 117.005 16.464C116.909 16.144 116.861 15.76 116.861 15.312C116.861 14.832 116.941 14.416 117.101 14.064C117.261 13.712 117.549 13.36 117.965 13.008C118.413 13.136 118.957 13.2 119.597 13.2C120.269 13.168 120.781 13.232 121.133 13.392C121.613 13.392 122.013 13.408 122.333 13.44C122.685 13.44 122.989 13.456 123.245 13.488C123.533 13.488 123.821 13.52 124.109 13.584C124.429 13.616 124.813 13.68 125.261 13.776ZM149.645 16.416C149.677 16.576 149.693 16.736 149.693 16.896C149.725 17.056 149.741 17.216 149.741 17.376C149.741 17.824 149.709 18.304 149.645 18.816C149.581 19.296 149.517 19.664 149.453 19.92C149.453 20.4 149.421 20.944 149.357 21.552C149.325 22.128 149.229 22.672 149.069 23.184C148.909 23.696 148.669 24.128 148.349 24.48C148.061 24.832 147.661 25.008 147.149 25.008C146.317 25.008 145.725 24.784 145.373 24.336C145.021 23.856 144.845 23.424 144.845 23.04C144.845 22.592 144.893 22.096 144.989 21.552C145.117 21.008 145.181 20.432 145.181 19.824C145.213 19.76 145.229 19.504 145.229 19.056C145.229 18.576 145.245 18.096 145.277 17.616H144.797L141.149 18.048C141.053 19.424 140.973 20.592 140.909 21.552C140.877 22.48 140.781 23.248 140.621 23.856C140.461 24.464 140.205 24.912 139.853 25.2C139.533 25.456 139.069 25.6 138.461 25.632C138.013 25.632 137.533 25.536 137.021 25.344C136.541 25.152 136.301 24.8 136.301 24.288C136.301 24.096 136.317 23.84 136.349 23.52C136.381 23.168 136.413 22.816 136.445 22.464C136.509 22.08 136.557 21.728 136.589 21.408C136.653 21.056 136.701 20.784 136.733 20.592C136.733 20.528 136.717 20.448 136.685 20.352C136.685 20.256 136.685 20.16 136.685 20.064C136.685 19.872 136.685 19.616 136.685 19.296C136.717 18.976 136.733 18.672 136.733 18.384C136.765 18.064 136.781 17.776 136.781 17.52C136.813 17.264 136.829 17.088 136.829 16.992V16.8C136.797 16.352 136.797 15.84 136.829 15.264C136.893 14.656 136.925 14.16 136.925 13.776C136.925 13.232 136.877 12.576 136.781 11.808C136.685 11.04 136.509 10.064 136.253 8.88C136.189 8.368 136.125 7.984 136.061 7.728C135.997 7.472 135.933 7.28 135.869 7.152C135.837 7.024 135.805 6.912 135.773 6.816C135.773 6.72 135.773 6.576 135.773 6.384C135.773 5.296 136.493 4.752 137.933 4.752C138.637 4.752 139.213 5.024 139.661 5.568C140.109 6.112 140.445 6.8 140.669 7.632C140.925 8.432 141.085 9.296 141.149 10.224C141.245 11.152 141.293 12.016 141.293 12.816V13.584C141.997 13.584 142.621 13.52 143.165 13.392C143.709 13.232 144.397 13.12 145.229 13.056C145.229 12.928 145.261 12.768 145.325 12.576C145.069 11.872 144.909 11.152 144.845 10.416C144.813 9.68 144.797 9.008 144.797 8.4C144.797 7.76 145.021 7.312 145.469 7.056C145.917 6.768 146.509 6.624 147.245 6.624C148.045 6.624 148.637 6.88 149.021 7.392C149.117 8.128 149.229 8.88 149.357 9.648C149.517 10.384 149.597 11.072 149.597 11.712C149.597 12.032 149.581 12.256 149.549 12.384C149.677 12.992 149.741 13.616 149.741 14.256C149.741 14.64 149.725 15.008 149.693 15.36C149.661 15.712 149.645 16.064 149.645 16.416ZM185.324 21.504C185.388 21.664 185.42 21.824 185.42 21.984C185.42 22.144 185.42 22.32 185.42 22.512C185.42 22.672 185.42 22.848 185.42 23.04C185.42 23.2 185.404 23.376 185.372 23.568L185.132 25.344V25.728C185.132 26.272 185.1 26.832 185.036 27.408C185.004 27.984 184.892 28.528 184.7 29.04C184.54 29.52 184.316 29.92 184.028 30.24C183.74 30.56 183.356 30.72 182.876 30.72C182.044 30.72 181.468 30.496 181.148 30.048C180.828 29.6 180.668 29.136 180.668 28.656C180.668 28.144 180.684 27.744 180.716 27.456C180.78 27.136 180.828 26.8 180.86 26.448C180.924 26.064 180.972 25.584 181.004 25.008C181.068 24.432 181.1 23.6 181.1 22.512C181.1 22.256 181.1 22.064 181.1 21.936C181.1 21.776 181.084 21.632 181.052 21.504C181.02 21.376 180.988 21.216 180.956 21.024C180.956 20.832 180.956 20.56 180.956 20.208C180.956 19.472 181.004 18.832 181.1 18.288C181.004 17.84 180.94 17.296 180.908 16.656C180.908 15.984 180.86 15.52 180.764 15.264C180.732 14.912 180.7 14.528 180.668 14.112C180.636 13.664 180.62 13.264 180.62 12.912C180.62 12.272 180.828 11.808 181.244 11.52C181.692 11.232 182.268 11.088 182.972 11.088C183.74 11.088 184.316 11.36 184.7 11.904C184.796 12.64 184.908 13.376 185.036 14.112C185.196 14.848 185.276 15.504 185.276 16.08C185.276 16.368 185.26 16.576 185.228 16.704C185.292 17.056 185.34 17.424 185.372 17.808C185.404 18.16 185.42 18.528 185.42 18.912C185.42 19.36 185.404 19.824 185.372 20.304C185.34 20.752 185.324 21.152 185.324 21.504ZM172.556 25.584C172.78 25.936 172.892 26.272 172.892 26.592C172.892 27.264 172.716 27.872 172.364 28.416C172.012 28.928 171.708 29.216 171.452 29.28C171.356 29.28 171.26 29.28 171.164 29.28C171.068 29.248 170.956 29.232 170.828 29.232C170.54 29.232 170.188 29.248 169.772 29.28C169.388 29.28 168.956 29.28 168.476 29.28C167.9 29.28 167.26 29.264 166.556 29.232C165.884 29.2 165.148 29.104 164.348 28.944L159.98 28.368C159.596 28.336 159.26 28.24 158.972 28.08C158.716 27.92 158.268 27.664 157.628 27.312C157.372 26.768 157.164 26.304 157.004 25.92C156.844 25.504 156.764 25.152 156.764 24.864C156.764 24.8 156.796 24.56 156.86 24.144C156.956 23.696 157.052 23.216 157.148 22.704C157.244 22.192 157.34 21.712 157.436 21.264C157.532 20.784 157.58 20.48 157.58 20.352C157.58 20.288 157.564 20.24 157.532 20.208C157.532 20.176 157.532 20.128 157.532 20.064C157.532 19.584 157.644 19.056 157.868 18.48C158.124 17.872 158.38 17.424 158.636 17.136C158.764 17.072 158.972 17.024 159.26 16.992C159.548 16.96 159.852 16.944 160.172 16.944C160.492 16.912 160.796 16.864 161.084 16.8C161.372 16.736 161.596 16.656 161.756 16.56C162.3 16.56 162.812 16.528 163.292 16.464C163.804 16.4 164.284 16.368 164.732 16.368C164.828 16.368 164.924 16.384 165.02 16.416C165.116 16.416 165.212 16.416 165.308 16.416C165.532 16.352 165.74 16.32 165.932 16.32C166.156 16.32 166.348 16.288 166.508 16.224C166.668 16.16 166.796 16.032 166.892 15.84C167.02 15.648 167.116 15.328 167.18 14.88C166.764 14.816 166.332 14.736 165.884 14.64C165.436 14.512 165.116 14.416 164.924 14.352L162.572 14.16C162.124 14.096 161.708 14.048 161.324 14.016C160.94 13.952 160.604 13.856 160.316 13.728C160.06 13.568 159.852 13.36 159.692 13.104C159.532 12.816 159.452 12.416 159.452 11.904C159.452 10.88 159.868 10.112 160.7 9.6C161.148 9.76 161.676 9.856 162.284 9.888C162.892 9.92 163.372 10 163.724 10.128C164.14 10.16 164.54 10.208 164.924 10.272C165.34 10.304 165.676 10.32 165.932 10.32H166.124C166.284 10.32 167.004 10.448 168.284 10.704L171.212 11.28C171.532 11.6 171.724 11.968 171.788 12.384C171.884 12.768 171.932 13.136 171.932 13.488C171.932 14.32 171.788 15.344 171.5 16.56C171.212 17.776 170.78 18.88 170.204 19.872C169.884 20 169.404 20.096 168.764 20.16C168.156 20.224 167.74 20.304 167.516 20.4H166.7C166.156 20.4 165.468 20.448 164.636 20.544C163.836 20.64 163.004 20.768 162.14 20.928C161.884 21.504 161.692 22.112 161.564 22.752C161.468 23.36 161.42 23.856 161.42 24.24C161.612 24.304 161.852 24.368 162.14 24.432C162.428 24.464 162.732 24.512 163.052 24.576C163.404 24.64 163.74 24.688 164.06 24.72C164.38 24.752 164.636 24.768 164.828 24.768C164.924 24.768 165.004 24.768 165.068 24.768C165.132 24.736 165.196 24.72 165.26 24.72C165.484 24.784 165.676 24.832 165.836 24.864C166.028 24.896 166.22 24.928 166.412 24.96C166.636 24.96 166.876 24.976 167.132 25.008C167.42 25.008 167.788 25.008 168.236 25.008L170.396 25.2C170.94 25.264 171.388 25.312 171.74 25.344C172.124 25.376 172.396 25.456 172.556 25.584ZM236.791 36.432C236.663 37.04 236.071 37.344 235.015 37.344C234.151 37.344 233.527 37.152 233.143 36.768C232.983 36.224 232.759 35.568 232.471 34.8C232.183 34 231.847 33.088 231.463 32.064C231.271 30.816 231.079 29.936 230.887 29.424C230.727 28.912 230.519 28.528 230.263 28.272C229.783 28.304 229.095 28.368 228.199 28.464C227.303 28.528 226.359 28.624 225.367 28.752C224.375 28.848 223.447 28.992 222.583 29.184C221.719 29.344 221.095 29.52 220.711 29.712C220.551 30.512 220.359 31.392 220.135 32.352C219.911 33.312 219.639 34.336 219.319 35.424C219.223 35.744 218.999 35.968 218.647 36.096C218.295 36.256 217.863 36.336 217.351 36.336C216.839 36.336 216.391 36.24 216.007 36.048C215.655 35.888 215.479 35.632 215.479 35.28C215.479 34.64 215.863 32.736 216.631 29.568C216.599 29.44 216.583 29.248 216.583 28.992C216.583 28.576 216.631 28.064 216.727 27.456C216.855 26.816 216.983 26.208 217.111 25.632C217.239 25.056 217.351 24.56 217.447 24.144C217.575 23.728 217.639 23.504 217.639 23.472L219.175 19.2C219.239 18.784 219.399 18.224 219.655 17.52C219.943 16.816 220.247 16.096 220.567 15.36C220.887 14.624 221.191 13.936 221.479 13.296C221.767 12.624 221.959 12.112 222.055 11.76C222.343 10.704 223.111 10.176 224.359 10.176C225.383 10.176 226.039 10.56 226.327 11.328C226.327 11.328 226.423 11.504 226.615 11.856C226.807 12.208 227.063 12.656 227.383 13.2C227.703 13.744 228.039 14.352 228.391 15.024C228.775 15.664 229.127 16.288 229.447 16.896C229.767 17.472 230.039 18 230.263 18.48C230.487 18.928 230.615 19.232 230.647 19.392C230.903 20 231.223 20.704 231.607 21.504C231.991 22.272 232.455 23.136 232.999 24.096C233.319 24.512 233.607 25.072 233.863 25.776C234.151 26.448 234.407 27.136 234.631 27.84C234.855 28.544 235.047 29.184 235.207 29.76C235.367 30.336 235.511 30.72 235.639 30.912C235.639 31.136 235.703 31.488 235.831 31.968C235.991 32.416 236.135 32.896 236.263 33.408C236.423 33.92 236.567 34.4 236.695 34.848C236.823 35.296 236.887 35.616 236.887 35.808C236.887 35.968 236.855 36.176 236.791 36.432ZM228.391 24.336C228.135 23.568 227.895 22.912 227.671 22.368C227.479 21.824 227.239 21.28 226.951 20.736C226.695 20.192 226.391 19.584 226.039 18.912C225.687 18.208 225.239 17.312 224.695 16.224C223.959 17.568 223.431 19.12 223.111 20.88C222.439 22.192 221.959 23.584 221.671 25.056C222.663 24.768 223.463 24.624 224.071 24.624C224.295 24.624 224.455 24.64 224.551 24.672C225.095 24.544 225.751 24.48 226.519 24.48C227.287 24.48 227.911 24.432 228.391 24.336ZM251.726 34.896C251.63 35.056 251.454 35.2 251.198 35.328C250.942 35.424 250.67 35.504 250.382 35.568C250.126 35.6 249.87 35.632 249.614 35.664C249.39 35.696 249.262 35.728 249.23 35.76C248.814 35.792 248.334 35.824 247.79 35.856C247.246 35.888 246.606 35.936 245.87 36C245.774 35.968 245.646 35.952 245.486 35.952C245.358 35.952 245.166 35.984 244.91 36.048C244.654 36.112 244.446 36.144 244.286 36.144C243.23 36.144 242.702 35.536 242.702 34.32C242.702 33.392 242.99 32.752 243.566 32.4L245.582 31.728C245.582 30.864 245.678 29.632 245.87 28.032C245.838 27.872 245.806 27.696 245.774 27.504C245.774 27.28 245.774 27.04 245.774 26.784C245.774 25.664 245.806 24.8 245.87 24.192C245.934 23.584 245.966 23.248 245.966 23.184C245.966 22.896 245.95 22.576 245.918 22.224C245.918 21.84 245.886 21.344 245.822 20.736C245.79 20.096 245.726 19.312 245.63 18.384C245.566 17.456 245.486 16.32 245.39 14.976L243.71 14.736C243.23 13.968 242.99 13.28 242.99 12.672C242.99 12.32 243.038 12.032 243.134 11.808C243.23 11.552 243.406 11.344 243.662 11.184C243.95 11.024 244.334 10.912 244.814 10.848C245.326 10.784 245.982 10.752 246.782 10.752C247.198 10.752 247.582 10.784 247.934 10.848C248.286 10.912 248.59 10.976 248.846 11.04C249.614 11.04 250.238 11.072 250.718 11.136C251.198 11.168 251.55 11.264 251.774 11.424C252.03 11.552 252.19 11.744 252.254 12C252.35 12.224 252.398 12.528 252.398 12.912C252.398 13.712 252.046 14.448 251.342 15.12C251.214 15.152 250.638 15.168 249.614 15.168C249.646 15.648 249.678 16.064 249.71 16.416C249.742 16.768 249.774 17.232 249.806 17.808C249.87 18.352 249.918 19.088 249.95 20.016C249.982 20.912 250.014 22.144 250.046 23.712C250.046 24.448 250.03 25.088 249.998 25.632C249.998 26.144 249.998 26.608 249.998 27.024C249.998 27.856 250.014 28.32 250.046 28.416L249.854 31.584C250.782 31.712 251.406 31.936 251.726 32.256C252.078 32.576 252.254 33.056 252.254 33.696C252.254 34.144 252.078 34.544 251.726 34.896Z" fill="#9334E9"/>
</svg>
