<svg xmlns="http://www.w3.org/2000/svg" xml:space="preserve" width="894.4718" height="300.00003" viewBox="0 0 894.47179 300.00003"><path d="M138.362 315.564c-3.9-8.359-13.83-11.975-22.186-8.076-8.355 3.893-11.971 13.827-8.079 22.183 3.896 8.355 13.831 11.974 22.186 8.078 8.355-3.903 11.975-13.834 8.079-22.185" style="fill:#8cd9e3;fill-opacity:1;fill-rule:nonzero;stroke:none;stroke-width:.354178" transform="matrix(1.33333 0 0 -1.33333 -97.433 630.833)"/><path d="M138.776 449.765c-2.89-6.201-10.267-8.883-16.462-5.992-6.202 2.886-8.88 10.257-5.982 16.458 2.887 6.198 10.254 8.88 16.452 5.99 6.198-2.887 8.879-10.254 5.992-16.456" style="fill:#d6a0d5;fill-opacity:1;fill-rule:nonzero;stroke:none;stroke-width:.354178" transform="matrix(1.33333 0 0 -1.33333 -97.433 630.833)"/><path d="M217.337 338.54c-4.328 9.29-.309 20.343 8.978 24.664 9.29 4.339 20.34.319 24.672-8.978 4.335-9.29.312-20.337-8.975-24.665-9.297-4.332-20.337-.312-24.675 8.978" style="fill:#f14770;fill-opacity:1;fill-rule:nonzero;stroke:none;stroke-width:.354178" transform="matrix(1.33333 0 0 -1.33333 -97.433 630.833)"/><path d="M137.048 381.218c-7.133-15.29-25.313-21.906-40.603-14.777-15.29 7.137-21.906 25.313-14.776 40.603 7.13 15.29 25.31 21.906 40.603 14.777 15.29-7.126 21.906-25.306 14.776-40.603" style="fill:#f89c22;fill-opacity:1;fill-rule:nonzero;stroke:none;stroke-width:.354178" transform="matrix(1.33333 0 0 -1.33333 -97.433 630.833)"/><path d="M219.387 409.828c-9.439 20.241-.683 44.304 19.562 53.743 20.251 9.439 44.307.684 53.743-19.561 9.438-20.238.687-44.304-19.558-53.743-20.241-9.435-44.308-.68-53.747 19.561" style="fill:#bacf0e;fill-opacity:1;fill-rule:nonzero;stroke:none;stroke-width:.354178" transform="matrix(1.33333 0 0 -1.33333 -97.433 630.833)"/><path d="M255.701 426.506c.404 1.226.769 1.842 1.084 1.842.18 0 .308-.166.386-.492.082-.323.12-1.006.12-2.05 0-.986-.166-1.864-.506-2.618-.34-.755-.69-1.134-1.052-1.134-.202 0-.361.1-.471.309-.11.201-.17.52-.17.945 0 .9.205 1.97.61 3.198zm-2.702-6.13a34.71 34.71 0 0 1 2.17-.673c.692-.188 1.23-.284 1.612-.284.627 0 1.275.177 1.948.535.67.361 1.208.85 1.615 1.466.404.613.67 1.091.804 1.428.29.694.436 1.523.436 2.49 0 .892-.064 1.593-.195 2.096-.13.507-.382 1.02-.743 1.534-.447.623-.84 1.077-1.173 1.346-.45.358-.967.535-1.548.535-.538 0-1.133.102-1.785.308-.644.205-1.165.3-1.54.3-.942 0-1.814-.789-2.61-2.372-.794-1.58-1.194-3.074-1.194-4.484 0-1.24.18-2.182.542-2.844.354-.659.91-1.123 1.66-1.381zm-10.077 13.5c-.155.266-.24.738-.24 1.439a569.207 569.207 0 0 1-.032 6.45c0 .938.004 1.607.014 2.004.007.16.014.315.018.475 0 .3-.49.453-1.484.453-.333 0-.67-.018-1.003-.05a64.394 64.394 0 0 1-1.48-.24c-.748-.146-1.12-.479-1.12-1.017v-9.506c0-1.102.277-1.91.833-2.426.552-.517 1.47-.772 2.73-.772 1.708.063 1.878 1.86 1.764 3.19zm27.58-17.032c-6.148-7.962-12.254-8.893-17.01-8.394-5.055.532-7.711 5.94-7.733 5.997a1.75 1.75 0 0 1-2.33.821 1.743 1.743 0 0 1-.825-2.32c.138-.297 3.488-7.21 10.483-7.969 6.124-.662 13.137.613 20.181 9.733a1.747 1.747 0 0 1-2.766 2.132zm4.771 18.47c0 1.545-.01 2.806-.018 3.773-.007.97-.014 1.866-.024 2.677 0 .939.01 1.608.014 2.005.01.16.017.315.028.475 0 .3-.5.453-1.484.453-.34 0-.676-.018-1.013-.05a63.067 63.067 0 0 1-1.477-.24c-.747-.146-1.123-.479-1.123-1.017v-9.506c0-1.102.277-1.91.836-2.426.556-.517 1.47-.772 2.728-.772 1.707.063 1.88 1.86 1.763 3.19-.156.266-.23.738-.23 1.439zm13.381-20.269c-3.173-8.71-9.542-15.665-17.946-19.582-14.674-6.84-31.71-2.473-41.513 9.524-1.786 2.185-3.362 4.59-4.608 7.264-.415.892-.78 1.792-1.109 2.699a34.394 34.394 0 0 0-2.143 11.914c0 13.083 7.427 25.628 20.036 31.511 8.405 3.914 17.833 4.325 26.546 1.155 8.71-3.17 15.665-9.542 19.579-17.946 3.917-8.405 4.328-17.83 1.158-26.539zm-66.543-64.269a12.74 12.74 0 0 0 6.63 7.232 12.761 12.761 0 0 0 9.81.432 12.77 12.77 0 0 0 7.24-6.633c2.982-6.415.206-14.058-6.205-17.05-4.105-1.917-8.716-1.453-12.29.81a12.716 12.716 0 0 0-4.756 5.398 12.632 12.632 0 0 0-1.159 4.452c-.024.319-.053.638-.053.957 0 1.48.255 2.968.783 4.402zm-87.925-28.217a10.923 10.923 0 0 0-1.023-4.576 10.883 10.883 0 0 0-5.065-5.171 10.933 10.933 0 0 0-9.503-.124 10.861 10.861 0 0 0-5.66 6.177c-1.009 2.751-.867 5.73.365 8.383a10.872 10.872 0 0 0 6.18 5.663 10.878 10.878 0 0 0 8.377-.365c3.985-1.855 6.33-5.819 6.33-9.948v-.04zm-1.193 64.085a24.334 24.334 0 0 0-1.148-2.997 24.622 24.622 0 0 0-4.764-6.857 24.664 24.664 0 0 0-9.24-5.978c-6.23-2.267-12.967-1.973-18.966.825-12.407 5.787-17.79 20.588-12.01 32.985 2.797 6.003 7.777 10.565 14.004 12.832 6.23 2.266 12.97 1.969 18.977-.83 11.415-5.319 16.858-18.282 13.147-29.98zm.591 65.54a6.672 6.672 0 0 0-8.85-3.216c-.174.085-.33.199-.497.294-1.356.783-2.397 1.973-2.936 3.46a6.609 6.609 0 0 0 .223 5.083 6.605 6.605 0 0 0 3.748 3.436 6.613 6.613 0 0 0 5.096-.22c1.845-.86 3.1-2.472 3.595-4.303a6.786 6.786 0 0 0 .237-1.732c0-.939-.198-1.891-.616-2.802zm164.303-5.752c-5.202 11.175-14.46 19.657-26.042 23.88-11.596 4.217-24.134 3.672-35.323-1.542-22.49-10.49-32.573-36.916-23.088-59.622l-17.777-10.26v62.753h-35.786v-19.884l-14.833 8.564c2.228 8.33-1.753 17.327-9.828 21.099-4.396 2.043-9.312 2.26-13.86.598a17.947 17.947 0 0 1-10.22-9.368 18.006 18.006 0 0 1-.61-13.852 17.987 17.987 0 0 1 9.368-10.225c6.372-2.971 13.597-1.895 18.8 2.15l21.183-12.23v-57.366l-16.77 9.68a35.892 35.892 0 0 1 2.543 13.267c0 13.675-7.764 26.797-20.95 32.946-8.783 4.094-18.644 4.523-27.75 1.211-9.099-3.315-16.377-9.977-20.471-18.76-8.458-18.138-.577-39.768 17.55-48.226 8.783-4.094 18.64-4.526 27.753-1.21a36.007 36.007 0 0 1 15.449 10.9l22.646-13.075v-32.241c0-6.815-.216-12.637-.634-17.525l-14.468 8.355c2.986 10.413-1.94 21.771-12.06 26.493-5.433 2.535-11.525 2.798-17.153.75a22.256 22.256 0 0 1-12.654-11.595c-2.533-5.433-2.798-11.525-.744-17.153a22.272 22.272 0 0 1 11.596-12.651c8.673-4.049 18.64-2.023 25.125 4.289l17.953-10.367c-9.902-24.644-46.553-27.987-46.553-27.987-5.298-.436-9.244-5.083-8.808-10.385.322-3.906 2.936-7.07 6.414-8.291h-.007l.13-.05c.033-.007.061-.017.09-.025 1.073-.354 6.187-1.816 15.02-1.204l-.004.007c41.34 1.626 59.236 25.689 59.236 25.689v.01c5.246 6.149 8.851 13.194 10.785 21.152 1.215 5.086 1.987 12.446 2.32 22.051l21.293 12.294c7.017-7.204 18.078-9.595 27.686-5.115 12.138 5.66 17.415 20.146 11.748 32.29-2.737 5.887-7.607 10.343-13.703 12.567-6.102 2.217-12.7 1.93-18.583-.818a24.101 24.101 0 0 1-12.56-13.703c-1.827-4.998-1.93-10.321-.414-15.319l-15.265-8.811v55.06l23.472 13.547c12.825-17.071 36.317-23.482 56.427-14.106 11.178 5.21 19.654 14.464 23.876 26.053 4.218 11.589 3.672 24.134-1.545 35.311zM108.75 395.895c.298.885.556 1.324.783 1.324.13 0 .22-.116.28-.35.056-.238.085-.73.085-1.477 0-.712-.124-1.339-.365-1.888-.248-.538-.5-.811-.755-.811-.148 0-.258.07-.336.216-.085.142-.128.379-.128.684 0 .648.146 1.416.436 2.302zm-1.944-4.413a23.608 23.608 0 0 1 1.565-.486c.496-.138.893-.205 1.162-.205.45 0 .917.128 1.399.386.489.259.871.613 1.162 1.056.294.442.488.786.58 1.027.213.5.316 1.101.316 1.792 0 .648-.046 1.154-.146 1.512-.092.365-.272.733-.527 1.105-.326.45-.602.776-.847.97a1.737 1.737 0 0 1-1.115.387c-.387 0-.819.067-1.286.22-.468.14-.84.219-1.112.219-.68 0-1.307-.57-1.881-1.71-.57-1.138-.857-2.218-.857-3.234 0-.89.131-1.57.39-2.048.258-.474.658-.804 1.197-.991zm16.61 10.7-3.3.7c.52.373 1.133.808 1.898 1.357.407.284.701.45.903.503.811.51 1.796 1.318 1.35 2.022-.365.507-.769.766-1.233.77-.457.01-1.002-.213-1.64-.67l-3.878-2.777c-.542-.393-1.955-1.194-2.054-2.033-.036-.29.088-.588.46-.871.843-.638 2.345-.454 3.344-.666.673-.149 1.547-.333 2.631-.563.489-.107.804-.213.978-.33.92-.251 2.185-.435 2.408.372.124.606.043 1.087-.262 1.431-.305.344-.84.595-1.604.754zm-23.11-2.767v6.188c0 .347-.237.566-.726.662-.17.032-.495.082-.96.156-.219.021-.439.032-.662.032-.64 0-.96-.096-.96-.294.004-.103.007-.21.015-.312.004-.255.007-.69.007-1.303-.004-.528-.007-1.112-.015-1.736-.004-.634-.007-1.452-.007-2.461 0-.457-.053-.762-.152-.932-.078-.871.032-2.033 1.148-2.075.818 0 1.413.163 1.774.496.361.343.538.867.538 1.58zm19.25-13.742c-4.31-5.826-8.695-6.588-12.13-6.3-3.641.304-5.636 4.154-5.657 4.2a1.257 1.257 0 0 1-2.245-1.13c.099-.209 2.617-5.14 7.668-5.575 4.427-.382 9.45.641 14.383 7.31a1.26 1.26 0 0 1-.266 1.76 1.245 1.245 0 0 1-1.753-.265M502.308 316.028c2.859.602 2.558 1.802 2.558 5.68v23.82h7.519v-23.129c0-3.828-.1-6.726-1.325-8.94-1.427-2.61-4.99-3.973-9.258-3.973h-5.936v6.063s4.682.12 6.442.479M530.944 328.434c-3.829 0-6.188-2.507-6.188-6.286 0-3.822 2.412-6.326 6.188-6.326 3.775 0 6.184 2.504 6.184 6.326 0 3.779-2.356 6.286-6.184 6.286zm.05-18.948c-7.853 0-13.158 5.6-13.158 12.616 0 7.023 5.45 12.62 13.157 12.62 7.753 0 13.112-5.448 13.112-12.62 0-7.12-5.405-12.616-13.112-12.616M561.768 315.479c3.733 0 5.936 2.5 5.936 6.722 0 4.268-2.256 6.878-5.982 6.878-3.489 0-5.897-2.504-5.897-6.878 0-4.272 2.213-6.722 5.943-6.722zm-12.177 30.048h6.528v-11.344c0-1.47-.1-2.95-.294-4.321 1.965 2.993 4.367 4.86 8.15 4.86 6.68 0 10.66-4.616 10.66-12.574 0-7.8-4.278-12.662-10.363-12.662-3.733 0-6.234 1.328-8.104 4.314l.05-3.386h-6.627v35.113M610.032 326.48c.79-2.802 1.328-5.696 1.767-8.593.053 3.042.443 5.84 1.13 8.592l4.572 19.048h7.406l-9.18-35.11h-7.218l-6.287 22.399c-.435 1.47-.928 3.527-1.08 6.329-.145-2.356-.485-4.47-1.03-6.33l-6.33-22.398h-7.222l-9.183 35.11h7.519l4.611-19.494c.542-2.401.832-5.008.978-7.902.5 3.29 1.236 5.982 1.82 8.25l5.16 19.146h7.364l5.203-19.048M638.023 328.434c-3.84 0-6.192-2.507-6.192-6.286 0-3.822 2.405-6.326 6.192-6.326 3.779 0 6.183 2.504 6.183 6.326 0 3.779-2.355 6.286-6.183 6.286zm.039-18.948c-7.853 0-13.155 5.6-13.155 12.616 0 7.023 5.448 12.62 13.155 12.62 7.763 0 13.108-5.448 13.108-12.62 0-7.12-5.394-12.616-13.108-12.616M670.986 334.721c.737 0 1.576-.142 2.557-.29l-1.03-7.37a7.894 7.894 0 0 1-3.192.64c-4.374 0-5.844-2.21-5.844-6.924v-10.363h-6.828v23.52h6.73l-.146-6.034c1.37 4.565 3.924 6.821 7.753 6.821M678.105 345.527h6.828v-35.113h-6.828v35.113M703.29 329.079c-3.73 0-5.992-2.56-5.992-6.832 0-4.218 2.21-6.768 5.943-6.768 3.726 0 5.94 2.45 5.94 6.722 0 4.374-2.405 6.878-5.89 6.878zm5.5-18.665.097 3.386c-1.867-2.986-4.374-4.314-8.107-4.314-6.089 0-10.402 4.863-10.402 12.662 0 7.958 3.973 12.623 10.653 12.623 3.482 0 5.936-1.576 8.15-4.91-.195 1.371-.245 2.852-.245 4.322v11.344h6.482v-35.113h-6.627M347.727 345.527h7.505v-15.91l11.692 15.91h8.691l-12.573-16.009 13.013-19.104h-9.036l-11.787 18.375v-18.375h-7.505v35.113M389.612 328.434c-3.832 0-6.19-2.5-6.19-6.286 0-3.822 2.404-6.326 6.19-6.326 3.783 0 6.192 2.504 6.192 6.326 0 3.786-2.366 6.286-6.192 6.286zm.046-18.948c-7.862 0-13.16 5.6-13.16 12.62s5.45 12.619 13.16 12.619c7.753 0 13.112-5.451 13.112-12.62 0-7.122-5.401-12.62-13.112-12.62M422.268 334.725c.736 0 1.565-.146 2.553-.294l-1.037-7.37c-1.031.445-2.058.64-3.188.64-4.378 0-5.847-2.21-5.847-6.924v-10.363h-6.826v23.524h6.73l-.149-6.038c1.378 4.569 3.928 6.825 7.764 6.825M438.861 329.125c-3.046 0-4.916-1.523-5.454-4.512h10.706c-.393 2.943-2.157 4.512-5.252 4.512zm-5.65-8.642c.55-3.386 2.459-5.054 5.75-5.054 2.457 0 4.274.928 5.5 2.897l5.493-2.752c-2.554-4.122-6.135-6.088-11.143-6.088-7.763 0-12.375 5.054-12.375 12.57 0 7.26 5.062 12.669 12.425 12.669 7.413 0 12.13-4.672 12.13-12.471 0-.595-.049-1.183-.095-1.77h-17.684M467.49 329.079c-3.74 0-5.983-2.607-5.983-6.878 0-4.218 2.203-6.722 5.933-6.722s5.94 2.45 5.94 6.722c0 4.374-2.406 6.878-5.89 6.878zm5.5-18.665.095 3.393c-1.866-2.993-4.363-4.321-8.096-4.321-6.096 0-10.413 4.863-10.413 12.662 0 7.905 3.977 12.577 10.65 12.577 3.446 0 6.092-1.527 7.909-4.672v3.885h6.481v-23.524h-6.626M384.714 406.8v-23.705H374.11v59.665h10.604v-27.01h12.566v-8.95zm-40.121 6.885c-3.347 0-5.943-.613-7.77-1.827-1.832-1.219-2.753-2.883-2.753-4.977 0-2.125.896-3.818 2.688-5.075 1.79-1.275 4.4-1.898 7.835-1.898 3.492 0 6.141.623 7.944 1.873 1.803 1.247 2.706 2.947 2.706 5.1 0 2.125-.924 3.79-2.77 4.994-1.848 1.208-4.47 1.81-7.88 1.81zm-12.644-50.435v24.25h10.728v-15.29h44.336v-8.96zm12.559 27.977c-6.358 0-11.476 1.459-15.354 4.38-3.87 2.93-5.812 6.663-5.812 11.214 0 4.48 1.923 8.196 5.77 11.136 3.846 2.936 9.006 4.409 15.48 4.409 6.475 0 11.643-1.463 15.503-4.392 3.868-2.922 5.798-6.637 5.798-11.153 0-4.52-1.937-8.252-5.815-11.188-3.879-2.94-9.067-4.406-15.57-4.406zm-25.296 34.858v8.546h19.806v9.234h10.728v-9.234h19.81v-8.546h-50.344M460.179 360.633v22.73h-44.425v9.107h22.278v11.985h-32.117v8.954h53.453c.425 6.683.637 12.885.637 18.605h-42.122v8.957h52.858c0-7.3-.358-16.487-1.067-27.562h12.482v-8.954h-33.477V392.47h22.235v-31.837H460.18M559.388 413.958v-15.155h-10.604v43.957h10.604v-19.703h12.481v-9.1zm-10.52-35.96h-30.285v-6.754h30.286zm-40.932-15.711v33.073h10.647v-8.408h30.286v8.539h10.519v-33.204zm28.367 36.65c-8.037 4.002-14.14 8.993-18.315 14.971-1.502-3.134-4.144-6.488-7.92-10.062-3.779-3.577-7.342-6.177-10.692-7.799l-7.58 7.53c5.735 2.171 10.594 5.62 14.564 10.38 3.978 4.761 5.965 9.67 5.965 14.717v1.41h-16.951v8.957h44.17v-8.957h-16.527v-1.017c0-4.838 1.853-9.233 5.554-13.182 3.708-3.946 8.539-6.9 14.507-8.848l-6.776-8.1M638.88 394.531v2.756h-14.908v7.303h14.908v38.17h10.653V394.53zm-31.558 40.653c-3.634 0-6.347-.496-8.139-1.491-1.788-1-2.68-2.225-2.68-3.673 0-1.445.913-2.625 2.751-3.538 1.824-.907 4.52-1.36 8.068-1.36 7.151 0 10.732 1.636 10.732 4.898 0 1.448-.868 2.674-2.607 3.673-1.728.995-4.438 1.49-8.125 1.49zm-12.566-73.446v18.736h44.039v3.446h-44.039v8.27h54.777v-18.743h-44.045V370h46.036v-8.263zm12.566 55.67c-6.336 0-11.422 1.119-15.272 3.368-3.85 2.238-5.77 5.337-5.77 9.283 0 4.034 1.906 7.133 5.728 9.304 3.818 2.175 8.921 3.262 15.314 3.262 6.33 0 11.398-1.116 15.202-3.33 3.807-2.21 5.709-5.294 5.709-9.236 0-3.917-1.97-7.006-5.9-9.27-3.932-2.255-8.94-3.381-15.01-3.381zm27.633-9.1c-3.4-.254-10.696-.665-21.884-1.239v-12.265h-10.74v11.716c-10.9-.46-17.782-.69-20.648-.69l-1.66 8.128c11.92 0 30.065.69 54.43 2.072l.502-7.721M679.83 397.836v37.762h51.958v-8.96h-41.23V406.8h42.47v-8.964zm-12.142-25.214v8.953h76.24v-8.953h-76.24" style="fill:#1575c5;fill-opacity:1;fill-rule:nonzero;stroke:none;stroke-width:.354178" transform="matrix(1.33333 0 0 -1.33333 -97.433 630.833)"/></svg>